<svg xmlns="http://www.w3.org/2000/svg" version="1.1" xlink="http://www.w3.org/1999/xlink" xmlns:svgjs="http://svgjs.com/svgjs" width="100%" height="100%" viewBox="14.184242248535156 5.0002851486206055 71.6316909790039 89.99835205078125"><g fill="url(#SvgjsLinearGradient1000)"><path fill="none" d="M30.766 86.929c-1.931-1.351-3.024-3.544-3.847-6.003-.27 2.523-.223 4.82-.657 7.974 1.483.364 3.025.664 4.692.844.219-.721-.106-1.995-.188-2.815zm-8.913-19.514c-.184-1.556.343-3.08-.751-3.844-.287 6.313.489 12.975.47 19.512 1.628-5.07.867-10.712.281-15.668zm11.164-7.973c-1.469 2.166.065 5.563.75 7.6.445.037.646-.168 1.126-.094-.158-1.769-.749-4.092-.374-5.817-.583-.482-.845-1.284-1.502-1.689zm15.198 7.6c-2.592.152-4.098-.781-6.099-1.22.021.767.469 1.484.189 2.251 2.726 1.151 4.848 2.908 6.285 5.347-.165-2.332-.89-4.183-.375-6.378zm-9.193-16.983c2.398.666 4.527 1.604 6.379 2.814-1.035-1.337-4.572-2.75-6.379-2.814zm-2.066 16.888c.22-1.334-.057-2.485-.187-3.848-.598-.164-.983-.999-1.501-.937.242 1.362.205 3.178.656 4.691.203.174.688.064 1.032.094zm1.127 0c1.116.26 2.245.507 3.378.75-.083-.854-.271-1.605-.47-2.346-.988-.481-2.107-.83-3.095-1.311.129 1.265-.099 1.776.187 2.907z"></path><path fill="none" d="M29.921 67.886c-.617-1.779-.4-3.668-.656-5.441-.123-.853-.514-1.617-.657-2.441-.114-.655.042-1.364 0-2.063-.133-2.266-.736-4.711.283-6.568.277-.3.792.414.843 0 .976-1.722.714-5.616 1.69-7.787.461-1.029 1.978-2.895 3.189-1.971 1.745-1.005 1.369-4.134 3.096-5.16 1.676 1.235 1.57 4.249 3.096 5.63.763-1.424 2.189-2.188 3.566-3.001-1.173-1.611-1.481-4.085-2.159-6.192-4.435-2.284-6.853 2.438-10.038 3.94-.064.889-.702 1.517-1.033 2.345-1.133 2.838-1.582 6.351-3.752 7.88-.96 3.088-1.114 6.346-1.127 8.724-.007 1.221-.18 2.4-.28 3.66-.31 3.82.184 7.963.843 12.29.683-1.631 2.013-2.615 3.096-3.845zm3.284-30.397c.097.266.097.391 0 .656-.244.176-.896.133-1.032-.093-.222-.72.619-.782 1.032-.563z"></path><path fill="none" d="M34.237 28.858c.143.421.562.709.657 1.126.335 1.47-.85 2.918-.844 4.41 1.327-.912 2.635-2.551 4.315-3.004 1.233-.331 2.488.18 3.846.283-.767-1.635-.605-3.542-1.689-4.786-.226-.259-.639-.278-1.032-.562-.451-.328-.635-.789-1.031-.939-.535-.202-1.251.007-1.877-.094-.895-.145-1.805-.678-2.533-.094.12 1.415-.184 2.567.188 3.66zm1.313 19.139c-.069.464-.615.946-.468 1.314.094-.25.378-.31.563-.469-.06-.257.118-.745-.095-.845zm8.255-6.381c-.383.19-.911.653-.843.94 3.618-.274 5.419 1.272 7.692 2.344.134.187.305-.377.751-.187.698 1.802 2.212 2.793 3.378 4.128.189-1.629-.651-2.227-.843-3.472-1.313-1.762-3.798-3.87-6.663-4.222-.976-.119-2.668.073-3.472.469zm-.374-8.067c.336 2.04 1.095 3.656 1.689 5.441 1.18-.536 3.414-.423 4.973-.281-.124-.657-.527-1.037-.47-1.875-2.033-1.127-4.317-2.001-6.192-3.285z"></path><path fill="none" d="M37.614 38.181c-.879 1.7-1.273 5.36-3.94 4.35-2.724 1.906-1.489 8.181-3.659 10.486h-.656c-.079 2.306-.105 4.252.094 6.496.094 1.075.608 1.846.749 2.933.239 1.804.02 3.674.751 5.346.526-.287 1.193-.431 1.877-.563-.942-2.28-2.446-6.895-.188-8.818-.512-1.179-1.067-2.311-.938-4.129.328-1.126 1.705-2.241 1.969-3.283.102-.405-.097-.904 0-1.314.263-1.121 1.284-1.963 1.408-3.19 2.076-.769 2.665-2.961 5.065-3.407-1.332-1.168-1.343-3.595-2.532-4.907zM56.66 80.457c.977-.992 1.503-3.382 1.032-4.503-.878 1.373-2.782 2.573-2.253 4.503.182-.102.838-.484 1.221 0zm-1.877 8.255c.252-1.145 1.677-2.059.751-3.283-.715 1.255-1.838 2.102-2.44 3.471.559-.065 1.162-.089 1.689-.188zm2.064-23.361c.034.427.287 1.301.375 1.972.889-.8 1.476-1.901 2.157-2.909-.227-.242-.159-.78-.468-.938-.549.763-1.014 1.613-2.064 1.875zm.75 7.038c-.661 1.488-3.561 2.742-2.063 4.784.888-1.466 3.127-2.729 2.063-4.784zm-.937 9.382c-.178.353-.525.537-1.126.469-.127.339.144.771.375 1.031.276-.413.824-1.051.751-1.5zm1.031 2.625c.138-.198.758-.226.469-.562-.213-.268-.361.32-.751.188a.476.476 0 0 1-.28-.282c-.209-.652.802-.855.28-1.22-.19.809-.795 1.204-1.126 1.875.186.378.191.937.47 1.221.277-.441.677-.761.938-1.22zm1.221-6.848c1.325-1.418 2.286-3.516 1.594-5.347a11.298 11.298 0 0 1-1.689 2.25c-.017 1.061-.269 2.364.095 3.097zm-4.129-3.097c.878-1.184 1.809-2.317 2.72-3.47-.095-.562-.271-1.044-.375-1.596-.713.195-.671 1.144-1.595 1.126-.094-.125-.254-.182-.283-.374.184-.912 1.106-1.084 1.314-1.97-1.376-3.491.206-6.303-1.314-9.757-.89.922-2.286 1.34-2.814 2.626-.278 2.541.486 4.286.845 6.097.529 2.665.516 5.249 1.502 7.318zm4.129-1.499c.532-1.176 2.446-2.253 1.311-3.94-.651 1.118-2.4 2.2-1.311 3.94zm2.344-12.667c-.402 1.008-2.121 1.935-1.126 3.191.37-.936 2.047-1.881 1.126-3.191zm-2.439-3.751c-.008.633.028 1.221.187 1.689.57-1.417 2.545-2.551 1.689-4.504-.415 1.15-1.094 2.034-1.876 2.815zm.469 4.971c.67-1.426 2.633-2.554 1.877-4.784-.865 1.35-2.64 2.942-1.877 4.784z"></path><path fill="none" d="M50.28 49.404c.885.003.889 1.088 1.126 1.689.793 2.022 1.269 4.56 2.252 6.286.083-.805-.254-1.393-.563-2.439-.15-.507-.929-2.203-.094-2.346.959-.163.935 3.562 1.595 3.659.224-.924.313-1.695.189-2.814-.329-2.938-3.537-6.138-6.192-7.599-1.824-1.003-3.833-1.814-6.38-1.408-1.846.295-2.436.736-3.565 1.69-.794.672-1.538 1.071-1.126 2.251.988-.045 1.874-.191 2.814-.281-.281-.429-.886-1.93-.093-2.064.906-.155.566 1.995 1.407 2.72.436.377.779.082 1.22.376-.145-.97-1.318-2.632-.376-3.472.741.252.71 1.318.939 2.065.236.77.386 1.663.938 2.063-.183-.961-1.576-2.439-.564-3.377.782.137.614 1.19.845 1.783.455 1.161.981 2.727 2.157 3.001-.206-.852-.58-1.376-.938-2.345-.187-.51-.968-2.307-.187-2.44.613-.104 1.246 2.4 1.5 3.002.836 1.975.995 3.724 2.534 4.41-.349-1.122-.613-1.945-1.126-3.19-.197-.479-1.597-2.727-.657-2.908.738-.143 1.57 2.821 1.783 3.377.876 2.297 1.139 3.943 2.345 5.254-.473-1.782-.979-3.722-1.595-5.347-.17-.45-.82-1.18-.188-1.596zm-1.783 9.007c.529-.09.904 1.272 1.126 1.689.406.76.652 1.345 1.032 1.875 0-2.89-2.243-4.948-3.939-6.098-2.47-1.674-5.871-3.797-8.819-4.035-2.14-.171-4.311 1.699-4.41 3.284-.068 1.086.835 2.483 1.407 3.377 1.251 1.96 2.7 3.223 4.692 4.223-.227-1.019-.285-1.838-.751-2.909-.169-.39-1.421-2.365-.469-2.533.638-.111 1.292 2.057 1.501 2.627.467 1.265.57 2.155.845 3.283.637.238 1.143.609 1.876.751-.415-1.223-.787-2.167-1.313-3.564-.208-.552-1.534-3.318-.657-3.473.6-.105.82 1.167 1.031 1.783.517 1.503 1.076 2.755 1.595 4.035.245.601.159 1.868 1.127 1.782-.533-1.154-.882-2.115-1.407-3.565-.183-.502-1.583-3.509-.657-3.659.606-.098.735 1.143.937 1.783.698 2.207 1.599 4.258 2.534 5.91.469.031.769.232 1.314.188-.813-2.008-2.057-4.157-2.815-6.193-.216-.576-.906-1.456-.376-2.065.918.093 1.058 1.182 1.314 1.878.83 2.249 2.067 4.464 3.095 6.474.422.012.804-.011 1.034-.189-.745-.996-1.142-1.985-1.784-3.377-.192-.418-1.953-3.293-.938-3.471.492-.087.844.981 1.032 1.407.803 1.827 1.501 3.763 2.627 4.972.142-.296.313-.563.375-.939-.859-.561-.929-1.464-1.501-2.626-.166-.337-1.783-2.435-.658-2.625zm11.072 7.41c-.659 1.282-2.554 2.464-1.22 4.128.796-1.045 2.431-2.446 1.22-4.128zm.937 14.448c-.429 1.066-1.962 1.837-1.501 3.19.638-.82 2.009-2.126 1.501-3.19zm-2.721 7.695c.307.151.358-.022.75 0 .139-.552.473-.905.657-1.408-.021-.072-.079-.11-.187-.095-.41.497-.912.903-1.22 1.503zM42.117 75.486c1.807 1.413 2.729 3.713 4.786 4.878.519-.491 1.121-1.369.844-2.346-.34.145.047.809-.564.845-.889-.366-1.32-1.306-1.875-1.971-.568-.68-1.34-1.356-1.502-2.346.135-.021.159-.153.283-.187 1.148.229 1.261 1.489 2.063 2.063.714-.738 1.373.671 1.595.375-.997-5.211-6.504-8.574-12.759-8.068-1.294.105-3.149.371-4.315 1.032-1.363.772-2.459 2.707-2.627 4.222a8.328 8.328 0 0 0 0 1.783c.306 3.023 2.276 7.031 5.535 7.132.357.017.357.394.751.374.503-.061 1.248.123 1.595-.093-1.292-1.209-2.495-2.508-3.19-4.315.135-.025.159-.155.283-.188 1.006.186 1.356 1.305 1.876 1.969.554.708 1.334 1.342 1.595 2.254.027.164-.44.287-.189.371.408-.25 1.137-.177 1.784-.187-.777-1.049-1.526-2.096-2.344-3.098-.793-.968-1.796-1.915-2.253-3.191.135-.024.159-.16.281-.194 1.318.446 1.839 1.838 2.627 2.802.83 1.016 1.67 1.947 2.439 2.98.129.295.021.608 0 .608h1.97c-2.42-2.306-4.362-5.74-6.754-8.489-.341-.392-1.06-.543-.939-1.266.134-.024.158-.154.282-.188.724-.035.805.572 1.313.751 1.415 2.141 3.636 4.715 5.442 6.941.77.95 1.944 2.99 3.378 1.783-.337.056-.453-.109-.657-.187-1.568-1.997-3.251-3.911-4.878-5.723-.544-.603-1.41-1.129-1.502-2.065.135-.021.159-.153.281-.187 1.625.761 2.522 2.392 3.659 3.659a315.214 315.214 0 0 1 3.471 3.94c.075.325-.104.396-.187.563.853-.336 1.6-.777 2.345-1.22-1.08-1.249-2.395-2.685-3.471-4.034-.31-.387-1.4-1.327-.472-1.782zm1.501 3.752c.696.802 1.65 1.668 1.502 2.533-.969.15-1.494-1.004-2.064-1.689-.584-.7-1.152-1.526-1.69-2.159-.304-.357-2.084-1.474-1.876-2.252.268-1.006 1.96.911 2.252 1.22.587.625 1.196 1.56 1.876 2.347zm-17.544-5.535c-.133-1.991-.54-4.023-.656-6.006-.22-3.706-.829-7.094-.188-10.037-1.17-1.019-2.01-2.368-3.003-3.566-.175 2.779 2.209 3.473 2.534 5.443-1.158.447-1.507-1.311-2.253-1.877-.104.889.599 1.629 1.221 2.534.295.431 1.688 2.159.657 2.343-.808.147-.907-1.699-1.596-1.969-.422.942 1.149 1.614.844 2.721-.293.346-.811-.197-.938 0 .06.369.045.992.375 1.501-.758.952-.177 2.421 0 3.848.07.562-.016 1.112 0 1.594.06 1.836.381 3.678.469 5.255.147 2.643-.448 5.154-.937 7.786-.248 1.32-.182 2.709-.657 4.127.79.823 2.037 1.194 3.377 1.22.425-.747.206-1.765.282-2.908.087-1.302.275-2.625.376-4.035.13-1.826-.245-3.761-.095-5.629.06-.742.246-1.489.188-2.345zm36.683 5.909c-.451 1.023-1.529 1.524-.939 3.097.685-.655 1.978-2.127.939-3.097zm1.266-28.333c.145 1.355-.114 2.59.61 3.847-.612-3.133-.161-8.352-.096-11.821.066-3.342-1.541-3.836-3.847-4.878v.281c0 2.12.612 4.088 1.244 6.099.698 2.221 1.845 4.189 2.089 6.472zm-42.17 11.447c.033-.813-.204-1.427-.375-2.251.486-.558.176-1.89-.377-2.252-.149 1.283-.094 3.346 0 4.503.36-.084.6.153.752 0zm41.092 21.578c.025-.351.433-1.213 0-1.406-.326.455-.514 1.01 0 1.406zm-.939.374c-.02-.072-.078-.107-.189-.092-.274.881-1.051 1.261-1.312 2.158.331.199.3.762.282 1.311.424-.107.527-.534.75-.843-.219-.094-.302-.324-.282-.656.272-.555.998-1.115.751-1.878zm-1.219-1.969c-.363.607-.827 1.112-1.126 1.783.382-.007.404.346.376.75.887-.373 1.61-1.734.75-2.533zM21.29 57.097c.357-.432.081-1.345-.375-1.689.302.589-.182 1.448.375 1.689zm-.75-10.602c-.093.446-.002.494-.094.939.975.024.872 1.128 1.501 1.501.127-1.044-.791-1.83-1.407-2.44zm.844-.75c.307.319.361.887.843 1.031.022-.603.314-.939.281-1.594-.416-.437-.991.14-1.124.563zm1.032 5.629c-.164 2.465 1.929 3.436 2.908 5.066.111-.6.048-1.172 0-1.783-1.211-.853-1.629-2.499-2.908-3.283zm.469-1.126c.952.803 1.599 2.4 2.534 2.908-.16-.463.064-.795 0-1.407-.966-.629-1.568-1.622-2.44-2.345-.158.156-.075.55-.094.844zm-2.158 1.408c-.014.732.032 2.398.283 3.189.447-.911.405-2.329-.283-3.189zm-.187-2.91c-.376 1.101.52 1.629 1.032 2.346.512-1.022-.637-1.646-1.032-2.346zm5.253-6.753c.791.897 1.389 1.988 2.44 2.626.094-.5.262-.926.469-1.315-1.161-.254-1.967-3.11-2.909-1.311zm4.128-1.878c.051-.574.424-.826.375-1.499-.799-.176-1.019.218-1.406.655.413.212.541.71 1.031.844zm-2.627.375c.561.66.925 1.514 1.783 1.877.117-.413.384-.679.375-1.219-.689-.59-1.307-1.723-2.158-.658zm-3.658 4.598c.876 1.001 1.695 2.059 2.533 3.097.034-.466.263-.74.282-1.22-.845-1.063-1.664-2.149-2.533-3.189-.115.416-.168.893-.282 1.312zm1.97 5.535c.496-2.035-1.349-3.167-2.344-4.315-.808 2.232 1.278 3.118 2.344 4.315zm-.939-7.692c.651 1.163 1.489 2.138 2.346 3.096.33.016.309-.317.563-.376-.879-.996-1.64-2.112-2.627-3.003a.475.475 0 0 1-.282.283zm35.745 21.764c.195.495.169 1.208.469 1.596.462-1.037 1.388-1.99.751-3.377-.377.623-.843 1.158-1.22 1.781zm-9.007 25.519c-.013.572.26 1.875.282 2.439 1.414-.369 3.454-.11 5.16-.187.006-.645-.291-1.763-.657-2.346-1.9.265-3.153.102-4.785.094zm5.912.261c.155.842.439 1.736.562 2.889h2.908c-.131-2.306-.737-2.051-.938-3.132-.82.179-1.623.153-2.532.243zm1.217-5.14c-.124 0-.085-.164-.186-.187-.399.728-1.273.979-1.314 2.064.504-.622 1.238-1.015 1.5-1.877zm2.253 4.035c.329 1.078.737 2.076 1.126 3.097 1.026-.507 2.88-.186 4.034-.564-.915-1.022-1.435-2.443-2.439-3.377-.398.79-1.857.519-2.721.844zm6.005-8.538c-.217-2.718-.718-5.375-.939-8.069-.35-4.28.093-8.622-.562-12.946-.726-.832-.74-1.987-1.22-3.189-.334-.835-.68-1.601-.844-2.346-.49-2.227.039-4.636-1.408-6.473.259 3.288.189 6.942.845 10.039-.298 1.954.162 3.5.375 5.346.157 1.369.034 2.832.187 4.222.154 1.385.761 2.773.939 4.223.283 2.324.263 5.046.281 7.88.017 2.943.23 5.707-.376 7.88.834 1.513 2.035 2.657 2.627 4.411.542-2.625.305-5.802.094-8.443-.066-.831.067-1.718.001-2.535zm16.324-42.124c0-9.679.359-19.152-1.22-27.394-3.259 4.527-4.345 11.227-5.253 18.106.226.18.77.042.656.563.088.732-.946-.026-.844.563-.202.481 1.184.109.844 1.032-.096.67-.984-.145-1.032.282-.352 1.61 3.04 2.399 3.283 3.659-1.479.729-2.32-1.451-3.659-1.783.07.445-.105.646-.093 1.031.248.002.535-.035.656.095.43.738 1.147 1.149 1.784 1.689.585.498 1.516.921 1.595 1.877-.896.366-1.573-.619-2.159-1.126-.697-.602-1.5-1.12-1.97-1.782-.079.451-.128.934-.187 1.407.778.782 1.654 1.468 2.533 2.158.823.646 1.999 1.252 2.251 2.438-1.02.295-1.723-.836-2.44-1.407-.834-.665-1.679-1.291-2.439-1.877-.195.306.021 1.022-.187 1.314.844.584 1.597 1.28 2.346 1.97.73.674 1.544 1.375 2.063 2.253a.85.85 0 0 1-.375.375c-1.72-.751-2.753-2.685-4.222-3.377-.021.854-.241 1.512-.281 2.346 1.093 1.101 2.906 1.964 3.19 3.563-.094 0-.111.077-.187.094-1.335-.14-1.905-1.846-3.096-2.438-.24.291.053 1.116-.188 1.407 1.522 1.355 3.061 2.694 4.41 4.223-.166.083-.155.343-.376.374-1.785-.716-2.674-2.33-4.127-3.377-.222.901.631 1.246 1.126 1.689.493.44.919 1.011 1.407 1.406 1.007.819 2.277 1.55 2.72 2.91-.133.021-.158.154-.28.187-1.081-.35-1.752-1.286-2.534-1.97-.799-.699-1.591-1.416-2.439-2.063.052 1.666-.113 3.552.093 5.066.125.178.202-.479.657-.281.6.433 1.33 1.012 1.97 1.595.551.502 1.637 1.216 1.22 2.063-.095 0-.113.076-.189.094-.652-.322-1.278-.947-1.876-1.501-.536-.499-1.215-1.378-1.689-1.314-.05.957.037 1.775.187 2.533 3.057 1.32 5.617 3.14 8.724 4.41-.226-7.828-.373-14.881-.373-23.082zM78.8 45.745c-.866.134-1.331-.65-1.97-1.315-.298-.31-2.262-2.184-1.126-2.345.736-.104 1.136 1.022 1.502 1.408.782.826 1.897 1.314 1.594 2.252zm1.97 11.163c-.983.007-1.899-.865-2.532-1.5-.605-.604-1.076-1.116-1.784-1.783-.192-.181-2.441-2.223-1.125-2.346.44-.039 1.134.955 1.5 1.314.938.92 1.921 1.88 2.909 2.721.465.396 1.267.876 1.032 1.594zM44.838 90.871c-.518.33-.698 1.162-.469 1.97 1.795-.364 4.2-.117 6.285-.188.182-.55-.148-1.561-.28-2.345-1.884.222-3.607.921-5.536.563zm4.41-6.755a.475.475 0 0 1 .28.28c-.624 1.61-2.19 2.81-3.095 4.129-.288.419-.813.903-.657 1.407.204-.141.528-.16.844-.188a38.036 38.036 0 0 1 1.782-2.721c.544-.758 1.676-1.857 1.783-2.72.109-.875-.703-4.03-.75-4.598-1.535 2.937-3.087 5.858-5.63 7.787 1.108.75-.293 1.559.189 2.627 1.31-1.504 2.505-3.241 3.753-4.691.409-.475.813-1.186 1.501-1.312zm1.313 1.407c-.754 1.466-1.963 2.478-2.627 4.035 2.289.463 3.101-2.328 2.627-4.035zm2.627-5.159c.629.696-.184 1.592-.563 2.157-.465.69-1.029 1.318-1.314 1.971.236.445.412 1.147.28 1.687.511-.35 1.102-1.012 1.597-1.687 1.187-1.623 1.735-3.525 1.032-5.442.013-.332.268-.419.281-.751-.135-2.281-1.225-4.807-1.689-7.505-.294-1.71-.299-3.465-.844-5.066-.004-.056-.015-.111-.094-.095-.28 1.095-1.23 1.523-2.626 1.501-.516 1.362-.179 2.922.094 4.129.484 2.148.017 4.243.469 6.285.21.957.613 1.757.75 2.815.126.971.177 1.952.469 2.814.789-.869.994-2.321 2.158-2.813zm-.751 7.6c.801-1.376 2.1-2.321 2.72-3.754-.189-.155-.07-.617-.374-.657-.907 2.066-2.789 3.154-3.472 5.443.812.244.887-.625 1.126-1.032zm29.74-21.861c.319.12.356.52.75.563v-.468c-.369.141-.65-.277-.75-.095zm.939 13.228c-.505-1.434-1.829-2.05-2.72-3.097-.064.563.086.915.093 1.407 1.146-.352 1.676 1.25 2.627 1.69zm-22.61-2.439c-.786 1.497-2.64 2.427-2.157 4.879.716-1.563 2.972-2.954 2.157-4.879zM82.927 89.37c.472.06.467.596.938.657-.156-.312-.74-.987-.938-.657zm.845-3.096c.037.38-.399.288-.469.563.307.162.444.494.75.656-.09-.41.232-1.231-.281-1.219zM81.521 81.3c.907-.181 1.566 1.994 2.251 2.346-.359-1.704-2.214-1.913-2.439-3.752.013-.299.418-.207.563-.376a11.936 11.936 0 0 1-1.313-1.219c-.096 1.441.119 2.57.187 3.847.69-.154.144-.723.751-.846zm.844-1.218c.19.562.632.868 1.032 1.218-.243-.506-.687-.815-1.032-1.218zm-2.533-16.231c.114-.731.233-1.235-.189-1.783.095.563-.206 1.521.189 1.783zm2.439 9.289c-.897-.636-1.386-1.677-2.439-2.158-.102.507.254.558.187 1.032 1.125-.411 1.526 1.144 2.252 1.126zm.469-.939c-.334-2.012-2.379-2.311-2.908-4.128a.474.474 0 0 1 .28-.281c.723-.057 1.015.697 1.408 1.126.392.429.918.996 1.219.939-.457-1.326-2.221-1.344-2.345-3.002.186-.002.118-.255.375-.188.887.27 1.026 1.289 1.97 1.502-.531-.885-1.642-1.736-2.345-2.439-.236-.236-.464-.764-.751-.563-.004 1.693-.055 3.432.189 4.878 1.515.171 1.88 1.496 2.908 2.156zM43.15 91.638a11.123 11.123 0 0 0-2.533-.132c-.331.437-.29.705 0 1.857h2.72c.174-1.152-.261-1.182-.187-1.725zm39.777-15.309c.039-2.229-1.907-2.47-2.907-3.658-.045.575.093.968.187 1.406 1.423-.124 1.726 1.642 2.72 2.252z"></path><path fill="none" d="M82.834 90.401c-.285.029-.335.291-.75.189-1.104-.601-1.354-3.18.469-3.097-.298-.763-2.079-1.735-1.032-2.626-.241-.41-.589-1.086-.188-1.595-.248-.096-.316-.371-.563-.469-.091 1.418.033 3.891.188 5.723.039.469-.096.954 0 1.313.225.851 1.763 1.878 2.345 1.22-.009-.367-.457-.295-.469-.658zM37.051 9.156c1.064-.742 2.683-.907 3.846-.47 1.444.543 1.467 2.794 2.439 3.847-.591-2.083-.761-4.748-2.439-5.535-1.05-.494-2.611.026-3.564.562-1.96 1.104-3.037 3.842-3.003 6.474.254-1.208 1.242-2.304 1.783-3.284.384-.695.316-1.161.938-1.594zm6.662 15.762c-.226-.484-.748-.845-1.032-1.314-.488-.802-.459-1.718-.845-2.626-.319-.75-2.353-2.747-3.002-3.097-.726-.392-2.087 1.081-2.72 1.502-.741.491-1.494.842-2.064 1.501.058 1.036-.119 2.308.094 3.19 1.727-.295 2.803.568 4.784.375.823.974 1.891 1.213 2.533 2.158.991 1.457 1.149 3.333 1.501 5.254.065.353 1.42 1.29 1.783 1.501 1.336.778 2.975 1.387 4.409 2.064-.682-1.667-1.574-2.695-2.533-4.127-.608-.91-1.49-1.779-1.876-2.722-.46-1.122-.485-2.487-1.032-3.659zm-10.321 4.503c-1.108 1.906-2.476 3.254-4.222 4.691-.814.671-2.555 1.746-2.908 2.533-.515 1.147-.229 2.518-.749 3.94 2.298-1.394 4.316-3.876 7.129-5.066.208-1.816 2.144-4.862.75-6.098zM20.54 77.173c-.006-.676-.223-1.353-.281-2.158-.116-1.597.044-3.247-.094-4.972-.44-5.536.263-11.656-.376-17.262-.092-.809-.203-1.671-.282-2.533-.068-.752-.145-3.224.095-3.94.527-1.577 2.916-2.284 3.565-3.661.892-.044 1.106-.769 1.595-1.218-.536-1.212.414-2.662.282-3.94-2.889 2.71-6.737 4.46-9.008 7.787.047 6.056.708 13.063 1.127 19.044.271 3.885-.134 7.401.187 11.257.208 2.499.207 5.352.374 7.412.197 2.394.089 4.694.377 7.038.083.684.293 1.548 1.032 1.782.995-1.196 1.021-3.357 1.689-4.88-.15-3.087-.257-6.403-.282-9.756zm33.774-39.309c-.136-1.367-.445-2.558-.939-3.565-1.941-.872-4.155-1.973-5.628-3.001 1.239 1.513 2.127 3.377 3.19 5.067 1.235.387 2.107 1.142 3.377 1.499z"></path><path fill="none" d="M39.302 16.943c.259.092.799.714 1.126 1.031.816.793 1.832 1.614 2.253 2.626.19.46.141.968.281 1.408.379 1.194 1.402 1.919 1.783 3.002-.365-3.044-.528-6.29-.845-9.382-1.02-1.919-2.096-3.781-3.002-5.817-1.023-.594-2.592-.348-3.471.188-.864 1.754-1.576 2.757-2.344 4.691-.588 1.476-1.297 2.626-1.033 4.784 1.935-.353 3.038-3.321 5.252-2.531zm-1.969-5.066c2.052-.776 4.382.605 3.94 3.189-.718 1.253-2.692 1.817-4.317 1.126-1.32-.983-1.195-3.721.377-4.315zm14.259 27.675c2.97 2.16 5.182 5.077 4.974 10.415-.151.411-.509.615-.563 1.125.519 1.442.906 3.617.563 5.347-.081.405-.446.675-.47 1.031-.042.637.432 1.352.564 1.971.373 1.756.182 3.45.187 4.784.654-.044 1.047-1.132 1.595-1.595-.371-.924-.029-1.982-.657-2.626.573-1.522-.023-3.6-.281-5.348-.274-1.862-.585-3.768-.375-5.534.064-.541.322-1.033.375-1.595.3-3.189-.753-6.095-2.346-8.35-1.74-.386-2.93-1.322-4.503-1.877.012 1.051.921 1.204.937 2.252zM61.726 77.08c.386-.894 1.716-1.92.937-3.097-.754.804-1.539 2.162-.937 3.097zm0 2.532c.442-.464.414-1.397 1.406-1.313-.096-.689.067-.872-.187-1.407-.398.855-1.79 1.78-1.219 2.72z"></path><path fill="none" d="M56.941 40.21c2.904 4.514-.005 10.035 1.783 15.104.813-.627.6-2.276 1.97-2.345-.101-2.707.148-5.455-.563-9.102-.093-.374.28-.283.188-.656-.587-1.538-1.96-2.293-3.378-3.001zm4.972 26.081c-.643.938-1.089 1.998-.469 3.284 1.573-.312.403.86.188 1.407-.314.796-.006 2.149.095 2.721.98-.852 1.029-2.16.843-3.565a55.922 55.922 0 0 0-.657-3.847zm-2.158-25.613c-.193-1.03-.442-2.056-.469-3.001-1.437-.908-2.922-1.77-4.503-2.534.379.959.14 1.879.468 2.627.585 1.332 3.47 2.006 4.504 2.908zm-25.424 49.16a6.12 6.12 0 0 0-.281-1.406c-.763-.176-1.578-.799-2.252-.751.299.761-.047 1.302.282 1.97.794.375 1.554.26 2.251.187zm2.064-1.031c-.446-.025-.724-.215-1.22-.188a3.86 3.86 0 0 0 .187 1.219c.381.102.552-.007 1.032.094.09-.267.09-.858.001-1.125zm8.067-4.598c-2.95 1.054-7.398.608-11.163.844-.92-.456-2.138-.615-2.908-1.219.639 1.283 2.245 2.335 4.034 2.814 3.907 1.044 8.706.126 10.037-2.439zm-1.875 3.846c-.485.391-1.305.447-1.97.657.215.445.429 1.003.094 1.502 1.025.648 2.625-1.095 1.876-2.159zm-7.037 2.721c-.383.471-.019 1.501.095 2.066.516-.047 1.229.102 1.594-.095-.144-.544-.241-1.135-.374-1.689-.455-.077-.797-.268-1.315-.282zm1.876-1.969c-.113.462-.119.777.094 1.22.682.34 1.333.296 2.065.187.05-.612.057-.728 0-1.407h-2.159zm.47 2.346c.079.608.168 1.207.374 1.689h1.22c-.104-.8.059-1.103-.188-1.689-.66-.018-.852.067-1.406 0zm-5.912-.47c.119.788.224 1.591.376 2.346.879.034 1.525-.163 2.251-.283-.067-.653-.133-1.306-.281-1.875-.635-.119-1.403.025-2.346-.188zm-6.471-.938c-.214 1.005-.632 1.809-.657 3.002 1.914.399 4.409.218 6.472.468.101-.7-.252-1.658-.28-2.532-1.776-.102-3.577-.588-5.535-.938zm-5.161 2.344c1.312.033 2.342.349 3.471.564.106-1.12.693-2.237.656-3.19-1.333-.104-2.33-.546-3.095-1.219-.155 1.413-.935 2.687-1.032 3.845z"></path><path d="M85.649 84.96c-.179-2.229-.601-4.367-.75-6.192-.333-4.073-.488-9.186-.094-13.041.083-.813.374-1.522.469-2.252.155-1.187 0-2.572 0-3.94 0-2.926-.216-5.762-.375-8.351-.522-8.497.552-17.974 0-26.081-.152-2.23-.011-5.257-.188-7.599-.232-3.07-.806-5.211-1.22-8.35-.144-1.101-.142-2.095-1.125-2.065-.814.026-1.646 2.389-2.158 3.283-.686 1.198-1.345 2.126-1.783 3.097-2.436 5.399-2.943 12.081-4.128 19.045-1.313 7.725-2.145 17.216-1.501 25.612.561.781 1.486 1.137 2.534 1.595.887.388 2.282.877 2.532 1.595.285.814 0 2.714 0 3.847 0 1.343-.083 2.779 0 3.94.495 6.828 1.398 14.23 1.314 21.39.727 1.11 1.775 2.605 3.471 2.626 3.649.049 3.285-4.611 3.002-8.159zM74.765 57.378a10.008 10.008 0 0 1-.187-2.533c.473-.064 1.152.815 1.689 1.314.598.554 1.224 1.179 1.876 1.501.076-.018.094-.094.189-.094.417-.848-.669-1.561-1.22-2.063a23.414 23.414 0 0 0-1.97-1.595c-.455-.198-.532.459-.657.281-.206-1.514-.042-3.4-.093-5.066.848.647 1.64 1.364 2.439 2.063.782.685 1.453 1.62 2.534 1.97.123-.033.147-.165.28-.187-.442-1.36-1.712-2.091-2.72-2.91-.489-.395-.915-.966-1.407-1.406-.495-.442-1.348-.788-1.126-1.689 1.453 1.047 2.343 2.661 4.127 3.377.221-.03.21-.29.376-.374-1.349-1.529-2.888-2.867-4.41-4.223.241-.292-.052-1.116.188-1.407 1.192.592 1.761 2.299 3.096 2.438.076-.018.093-.094.187-.094-.284-1.599-2.097-2.462-3.19-3.563.04-.834.261-1.492.281-2.346 1.469.692 2.501 2.626 4.222 3.377a.83.83 0 0 0 .375-.375c-.519-.878-1.333-1.578-2.063-2.253-.749-.69-1.502-1.386-2.346-1.97.208-.291-.007-1.007.187-1.314.76.585 1.605 1.211 2.439 1.877.717.571 1.42 1.702 2.44 1.407-.252-1.187-1.428-1.792-2.251-2.438-.879-.69-1.754-1.376-2.533-2.158.059-.473.108-.956.187-1.407.47.662 1.273 1.18 1.97 1.782.586.507 1.263 1.492 2.159 1.126-.079-.956-1.01-1.379-1.595-1.877-.637-.539-1.354-.95-1.784-1.689-.12-.129-.408-.092-.656-.095-.012-.385.163-.587.093-1.031 1.339.332 2.179 2.513 3.659 1.783-.243-1.26-3.636-2.049-3.283-3.659.047-.427.935.388 1.032-.282.339-.923-1.046-.552-.844-1.032-.102-.589.932.169.844-.563.115-.521-.429-.383-.656-.563.908-6.879 1.995-13.58 5.253-18.106 1.579 8.242 1.22 17.715 1.22 27.394 0 8.201.147 15.254.374 23.08-3.108-1.268-5.667-3.087-8.725-4.408zm8.162 8.82v.468c-.394-.043-.431-.442-.75-.563.1-.182.381.236.75.095zm-3.283-4.13c.422.548.302 1.052.189 1.783-.396-.262-.095-1.22-.189-1.783zm0 3.097c.287-.202.515.326.751.563.703.704 1.813 1.555 2.345 2.439-.944-.213-1.084-1.232-1.97-1.502-.257-.067-.188.186-.375.188.124 1.658 1.888 1.676 2.345 3.002-.301.057-.827-.51-1.219-.939-.393-.429-.686-1.183-1.408-1.126a.469.469 0 0 0-.28.281c.529 1.817 2.573 2.116 2.908 4.128-1.028-.66-1.393-1.985-2.908-2.158-.244-1.443-.193-3.183-.189-4.876zm.188 5.817c1.053.481 1.542 1.522 2.439 2.158-.726.018-1.127-1.537-2.251-1.126.066-.474-.29-.526-.188-1.032zm.188 1.69c1 1.188 2.947 1.429 2.907 3.658-.994-.61-1.297-2.377-2.72-2.252-.094-.438-.232-.831-.187-1.406zm.469 4.97c-.008-.492-.157-.844-.093-1.407.892 1.047 2.215 1.663 2.72 3.097-.951-.441-1.481-2.043-2.627-1.69zm2.908 3.658c-.4-.35-.842-.656-1.032-1.218.345.403.789.712 1.032 1.218zm-2.814-3.001c.409.437.842.847 1.313 1.219-.145.169-.55.077-.563.376.225 1.839 2.08 2.048 2.439 3.752-.686-.352-1.345-2.527-2.251-2.346-.607.123-.061.691-.751.845-.068-1.276-.284-2.405-.187-3.846zm.375 11.539c-.096-.359.039-.843 0-1.313-.155-1.833-.279-4.305-.188-5.723.247.098.315.374.563.469-.401.509-.053 1.185.188 1.595-1.047.892.734 1.863 1.032 2.626-1.823-.083-1.573 2.496-.469 3.097.415.102.465-.16.75-.189.012.364.46.291.469.657-.581.659-2.12-.368-2.345-1.219zm1.969-.468c.198-.33.782.346.938.657-.471-.062-.466-.598-.938-.657zm1.126-1.877c-.306-.162-.442-.494-.75-.656.071-.275.507-.182.469-.563.513-.012.191.809.281 1.219zM33.205 38.145c.097-.266.097-.391 0-.656-.413-.218-1.254-.156-1.032.563.136.226.788.269 1.032.093z"></path><path d="M77.205 43.494c-.366-.386-.766-1.512-1.502-1.408-1.136.161.828 2.035 1.126 2.345.639.665 1.104 1.449 1.97 1.315.304-.939-.811-1.427-1.594-2.252zm2.533 11.82c-.988-.841-1.971-1.801-2.909-2.721-.366-.359-1.06-1.353-1.5-1.314-1.317.123.933 2.165 1.125 2.346.708.668 1.179 1.179 1.784 1.783.633.635 1.55 1.506 2.532 1.5.235-.718-.567-1.198-1.032-1.594zM39.49 75.672c-.208.778 1.572 1.895 1.876 2.252.538.633 1.106 1.459 1.69 2.159.57.685 1.094 1.838 2.064 1.689.149-.865-.806-1.731-1.502-2.533-.68-.787-1.289-1.722-1.875-2.346-.292-.311-1.984-2.228-2.253-1.221z"></path><path d="M68.292 78.394c-.179-1.69-.279-3.323-.468-4.974-.545-4.752-.125-10.815-.938-15.292-.302-1.657-.635-3.192-.751-4.691-.19-2.421-.426-5.57-.188-8.255.067-.752.378-1.23.375-1.878-.004-1.318-.481-3.233-1.031-4.033-.581-.844-2.063-1.344-3.473-2.158-.971-.561-2.361-1.486-3.564-2.157-1.245-.695-2.513-1.394-3.66-2.063-1.317-.773-2.658-1.196-3.846-1.877-1.292-.741-3.294-2.211-3.752-3.472-.3-.823-.237-1.963-.376-3.002-.43-3.21-.478-6.077-.938-9.475-.586-4.322-1.389-11.059-6.943-9.944A7.364 7.364 0 0 0 33.861 8.5c-1.756 2.843-1.596 7.352-1.596 11.915.002 2.111.42 5.267 0 7.223-.148.693-1.144 1.969-1.688 2.626-.654.79-1.66 1.626-2.25 2.158-3.199 2.881-6.266 5.266-9.757 7.693-1.314.913-3.791 2.796-4.222 4.598-.371 1.544-.01 3.274.093 4.972.108 1.738.011 3.256.189 4.785.177 1.538.261 3.046.374 4.596.22 2.964.123 5.971.375 9.57.306 4.361.089 9.066.376 13.603.142 2.251.416 4.33.563 6.285.125 1.677.024 3.032.657 3.941.76 1.091 2.396 1.288 4.315 1.594 3.259.518 5.973.869 9.476.938 1.42.028 2.842-.315 4.316-.375 3.012-.123 6.104.16 9.475 0 2.8-.133 5.897-.227 9.1-.375 3.105-.142 6.551.393 9.475 0 .442-.061.791-.297 1.408-.376 1.312-.167 2.608.061 3.377-.563 1.163-.947 1.049-6.786.75-9.85-.174-1.78-.208-3.501-.375-5.064zM60.69 38.427c2.306 1.041 3.913 1.536 3.847 4.878-.065 3.47-.516 8.688.096 11.821-.724-1.256-.465-2.491-.61-3.847-.244-2.283-1.391-4.251-2.089-6.472-.632-2.012-1.244-3.979-1.244-6.099v-.281zm1.128 44.282c-.589-1.573.489-2.074.939-3.097 1.039.97-.254 2.442-.939 3.097zm1.127 1.595c-.513-.396-.325-.951 0-1.406.432.192.025 1.055 0 1.406zm-1.408 2.908c-.224.31-.326.736-.75.843.019-.549.05-1.112-.282-1.311.261-.897 1.039-1.277 1.312-2.158.111-.015.169.02.189.092.247.763-.48 1.324-.75 1.878-.021.331.062.562.281.656zm-1.876-2.72c.299-.671.763-1.176 1.126-1.783.86.799.137 2.16-.75 2.533.028-.405.007-.757-.376-.75zm-.657-1.032c-.461-1.353 1.072-2.124 1.501-3.19.509 1.063-.862 2.369-1.501 3.19zm.188 3.095c-.184.503-.518.857-.657 1.408-.392-.022-.442.151-.75 0 .309-.6.81-1.005 1.22-1.503.108-.015.166.023.187.095zm-8.725-35.556c.616 1.626 1.121 3.565 1.595 5.347-1.206-1.31-1.468-2.957-2.345-5.254-.212-.556-1.045-3.52-1.783-3.377-.94.181.46 2.429.657 2.908.513 1.245.777 2.068 1.126 3.19-1.54-.686-1.698-2.435-2.534-4.41-.254-.602-.887-3.106-1.5-3.002-.781.133 0 1.93.187 2.44.358.969.732 1.493.938 2.345-1.176-.275-1.702-1.84-2.157-3.001-.232-.593-.064-1.646-.845-1.783-1.012.938.381 2.416.564 3.377-.553-.401-.702-1.293-.938-2.063-.229-.746-.198-1.813-.939-2.065-.942.84.231 2.501.376 3.472-.441-.294-.784.001-1.22-.376-.841-.725-.502-2.875-1.407-2.72-.793.134-.188 1.635.093 2.064-.94.09-1.826.236-2.814.281-.413-1.181.332-1.579 1.126-2.251 1.129-.953 1.718-1.395 3.565-1.69 2.548-.405 4.556.405 6.38 1.408 2.656 1.461 5.863 4.66 6.192 7.599.124 1.119.035 1.89-.189 2.814-.659-.097-.636-3.822-1.595-3.659-.834.143-.056 1.839.094 2.346.309 1.047.646 1.635.563 2.439-.983-1.726-1.459-4.264-2.252-6.286-.236-.601-.241-1.685-1.126-1.689-.631.417.019 1.147.188 1.596zm-1.313 10.038c.572 1.163.642 2.066 1.501 2.626-.061.376-.232.643-.375.939-1.126-1.209-1.824-3.145-2.627-4.972-.188-.427-.54-1.494-1.032-1.407-1.015.178.746 3.053.938 3.471.642 1.393 1.039 2.381 1.784 3.377-.23.178-.612.202-1.034.189-1.027-2.01-2.264-4.225-3.095-6.474-.256-.696-.396-1.784-1.314-1.878-.53.609.16 1.488.376 2.065.759 2.035 2.003 4.184 2.815 6.193-.545.044-.845-.157-1.314-.188-.935-1.653-1.836-3.704-2.534-5.91-.203-.64-.331-1.881-.937-1.783-.926.15.474 3.157.657 3.659.526 1.45.874 2.411 1.407 3.565-.968.086-.882-1.181-1.127-1.782-.519-1.28-1.077-2.532-1.595-4.035-.211-.616-.431-1.888-1.031-1.783-.878.155.449 2.921.657 3.473.526 1.397.898 2.341 1.313 3.564-.733-.142-1.239-.513-1.876-.751-.276-1.128-.379-2.017-.845-3.283-.208-.571-.863-2.739-1.501-2.627-.952.168.3 2.143.469 2.533.467 1.071.525 1.89.751 2.909-1.992-1-3.441-2.263-4.692-4.223-.572-.894-1.475-2.291-1.407-3.377.1-1.585 2.27-3.455 4.41-3.284 2.948.237 6.349 2.361 8.819 4.035 1.696 1.15 3.939 3.208 3.939 6.098-.38-.53-.625-1.116-1.032-1.875-.221-.417-.597-1.779-1.126-1.689-1.124.189.493 2.287.658 2.625zm-6.567 16.23c1.076 1.349 2.392 2.785 3.471 4.034-.746.443-1.493.885-2.345 1.22.083-.167.262-.238.187-.563a315.214 315.214 0 0 0-3.471-3.94c-1.137-1.266-2.034-2.898-3.659-3.659-.123.034-.147.165-.281.187.092.935.958 1.461 1.502 2.065 1.627 1.812 3.31 3.726 4.878 5.723.204.078.32.243.657.187-1.435 1.207-2.608-.833-3.378-1.783-1.806-2.227-4.027-4.8-5.442-6.941-.508-.179-.589-.786-1.313-.751-.124.034-.148.164-.282.188-.121.724.598.875.939 1.266 2.393 2.749 4.335 6.184 6.754 8.489h-1.97c.021 0 .129-.313 0-.608-.769-1.032-1.609-1.963-2.439-2.98-.787-.964-1.309-2.356-2.627-2.802-.123.034-.147.17-.281.194.456 1.277 1.459 2.223 2.253 3.191.818 1.002 1.567 2.049 2.344 3.098-.647.01-1.376-.063-1.784.187-.252-.085.216-.207.189-.371-.261-.912-1.041-1.546-1.595-2.254-.52-.664-.87-1.783-1.876-1.969-.124.033-.148.163-.283.188.696 1.807 1.898 3.106 3.19 4.315-.346.216-1.092.033-1.595.093-.395.02-.395-.357-.751-.374-3.259-.1-5.229-4.109-5.535-7.132a8.328 8.328 0 0 1 0-1.783c.169-1.514 1.265-3.449 2.627-4.222 1.166-.661 3.021-.928 4.315-1.032 6.255-.505 11.762 2.857 12.759 8.068-.222.296-.881-1.113-1.595-.375-.802-.574-.916-1.835-2.063-2.063-.124.034-.148.165-.283.187.162.99.934 1.666 1.502 2.346.554.665.985 1.605 1.875 1.971.611-.036.224-.7.564-.845.277.977-.325 1.855-.844 2.346-2.057-1.165-2.979-3.465-4.786-4.878-.926.456.164 1.396.472 1.782zm-16.605 4.409c-.101 1.41-.289 2.732-.376 4.035-.075 1.143.144 2.16-.282 2.908-1.34-.026-2.588-.397-3.377-1.22.476-1.419.41-2.807.657-4.127.489-2.632 1.084-5.142.937-7.786-.088-1.577-.409-3.419-.469-5.255-.016-.482.07-1.032 0-1.594-.177-1.426-.758-2.895 0-3.848-.33-.509-.315-1.131-.375-1.501.127-.197.645.346.938 0 .304-1.107-1.266-1.779-.844-2.721.689.27.788 2.116 1.596 1.969 1.031-.184-.361-1.912-.657-2.343-.622-.905-1.326-1.645-1.221-2.534.746.565 1.094 2.324 2.253 1.877-.325-1.97-2.709-2.664-2.534-5.443.993 1.198 1.833 2.548 3.003 3.566-.641 2.943-.032 6.331.188 10.037.116 1.982.522 4.014.656 6.006.058.857-.128 1.603-.187 2.345-.152 1.868.224 3.803.094 5.629zm-5.067-26.268c.456.343.732 1.256.375 1.689-.557-.241-.073-1.1-.375-1.689zm8.538-14.26c.009.54-.258.806-.375 1.219-.858-.362-1.222-1.217-1.783-1.877.85-1.065 1.468.068 2.158.658zm-.563-1.877c.387-.437.607-.831 1.406-.655.048.673-.324.925-.375 1.499-.49-.134-.618-.632-1.031-.844zm-.188 4.033a4.531 4.531 0 0 0-.469 1.315c-1.052-.638-1.649-1.729-2.44-2.626.942-1.799 1.748 1.057 2.909 1.311zm-1.126 2.347c-.254.059-.233.392-.563.376-.856-.958-1.695-1.933-2.346-3.096a.468.468 0 0 0 .281-.284c.987.892 1.748 2.007 2.628 3.004zm-1.126 1.313c-.019.481-.247.754-.282 1.22-.837-1.038-1.657-2.096-2.533-3.097.114-.419.168-.896.281-1.313.869 1.041 1.689 2.128 2.534 3.19zm-.844 3.659c-1.066-1.197-3.152-2.083-2.344-4.315.994 1.148 2.84 2.28 2.344 4.315zm-.187 1.126c.064.612-.16.945 0 1.407-.935-.508-1.582-2.105-2.534-2.908.02-.294-.064-.688.094-.844.872.722 1.474 1.715 2.44 2.345zm-.095 2.907c.048.611.111 1.183 0 1.783-.979-1.63-3.073-2.601-2.908-5.066 1.279.785 1.697 2.431 2.908 3.283zm-3.097-7.88c-.482-.144-.536-.713-.843-1.031.133-.423.708-1 1.125-.563.032.655-.26.991-.282 1.594zm-.28 2.158c-.629-.373-.526-1.477-1.501-1.501.092-.445.001-.493.094-.939.616.611 1.534 1.397 1.407 2.44zm-1.407-.188c.395.7 1.544 1.324 1.032 2.346-.512-.717-1.409-1.245-1.032-2.346zm.187 2.91c.688.86.729 2.277.283 3.189-.251-.791-.296-2.457-.283-3.189zm.374 6.567c.552.361.863 1.693.377 2.252.171.824.408 1.439.375 2.251-.151.153-.392-.083-.751 0-.095-1.158-.149-3.22-.001-4.503zm0 5.348c1.094.764.567 2.289.751 3.844.586 4.956 1.347 10.598-.281 15.668.019-6.537-.757-13.199-.47-19.512zm4.881-4.129c.101-1.26.274-2.438.28-3.66.013-2.379.167-5.636 1.127-8.724 2.169-1.529 2.618-5.042 3.752-7.88.331-.827.969-1.456 1.033-2.345 3.185-1.502 5.603-6.224 10.038-3.94.677 2.106.986 4.581 2.159 6.192-1.377.813-2.803 1.577-3.566 3.001-1.525-1.381-1.42-4.395-3.096-5.63-1.727 1.027-1.35 4.155-3.096 5.16-1.211-.924-2.728.942-3.189 1.971-.976 2.17-.714 6.064-1.69 7.787-.051.414-.566-.3-.843 0-1.018 1.856-.416 4.302-.283 6.568.042.699-.114 1.408 0 2.063.144.824.535 1.587.657 2.441.256 1.773.038 3.662.656 5.441-1.083 1.23-2.413 2.214-3.096 3.846-.659-4.328-1.154-8.471-.843-12.291zm8.067-34.244c.728-.583 1.637-.051 2.533.094.626.1 1.343-.108 1.877.094.396.15.58.611 1.031.939.392.284.806.303 1.032.562 1.084 1.244.922 3.151 1.689 4.786-1.358-.103-2.613-.614-3.846-.283-1.681.453-2.988 2.092-4.315 3.004-.006-1.492 1.179-2.939.844-4.41-.095-.417-.514-.705-.657-1.126-.372-1.093-.068-2.245-.188-3.66zM45.12 38.99c-.594-1.784-1.353-3.401-1.689-5.441 1.875 1.285 4.159 2.158 6.192 3.284-.057.839.346 1.218.47 1.875-1.559-.142-3.793-.254-4.973.282zm8.82 6.379c.193 1.245 1.032 1.843.843 3.472-1.166-1.335-2.68-2.326-3.378-4.128-.446-.19-.617.374-.751.187-2.273-1.072-4.074-2.617-7.692-2.344-.068-.287.46-.75.843-.94.804-.396 2.496-.588 3.472-.468 2.865.351 5.35 2.459 6.663 4.221zm-18.295 3.472c-.185.16-.469.219-.563.469-.147-.368.4-.85.468-1.314.213.101.035.589.095.845zm-.563-2.346c-.124 1.227-1.145 2.069-1.408 3.19-.097.41.102.908 0 1.314-.264 1.041-1.642 2.157-1.969 3.283-.129 1.818.426 2.951.938 4.129-2.258 1.923-.754 6.538.188 8.818-.683.132-1.351.276-1.877.563-.732-1.672-.513-3.542-.751-5.346-.141-1.086-.655-1.857-.749-2.933-.199-2.244-.173-4.19-.094-6.496h.656c2.17-2.306.935-8.58 3.659-10.486 2.667 1.01 3.061-2.65 3.94-4.35 1.189 1.311 1.2 3.739 2.533 4.907-2.401.446-2.99 2.638-5.066 3.407zm-.189 20.452c-.479-.073-.681.132-1.126.094-.686-2.036-2.219-5.434-.75-7.6.657.405.919 1.207 1.502 1.689-.375 1.725.217 4.049.374 5.817zm-7.974 13.98c.824 2.459 1.917 4.652 3.847 6.003.082.82.408 2.094.187 2.816a35.67 35.67 0 0 1-4.692-.844c.434-3.155.388-5.453.658-7.975zm8.35-18.764c.518-.062.902.772 1.501.937.13 1.363.406 2.514.187 3.848-.344-.03-.83.08-1.031-.094-.452-1.513-.415-3.329-.657-4.691zm2.627 1.876c.988.482 2.107.831 3.095 1.311.199.741.387 1.492.47 2.346-1.132-.243-2.262-.49-3.378-.75-.286-1.13-.058-1.641-.187-2.907zm4.409 4.034c.28-.768-.168-1.485-.189-2.251 2.001.439 3.507 1.372 6.099 1.22-.516 2.195.209 4.046.375 6.378-1.437-2.439-3.558-4.197-6.285-5.347zm-3.283-18.014c1.807.064 5.344 1.477 6.379 2.814-1.852-1.21-3.981-2.148-6.379-2.814zm13.415 10.978c.528-1.287 1.925-1.704 2.814-2.626 1.52 3.454-.061 6.266 1.314 9.757-.208.886-1.13 1.058-1.314 1.97.029.191.189.249.283.374.924.018.882-.931 1.595-1.126.104.553.28 1.035.375 1.596-.911 1.153-1.842 2.285-2.72 3.47-.986-2.069-.973-4.654-1.501-7.317-.36-1.812-1.124-3.557-.846-6.098zm6.475 11.915c-1.089-1.74.66-2.822 1.311-3.94 1.135 1.687-.779 2.764-1.311 3.94zm0 4.596c-.364-.733-.112-2.036-.095-3.097a11.405 11.405 0 0 0 1.689-2.25c.692 1.832-.269 3.929-1.594 5.347zm1.218-14.071c-.996-1.256.724-2.184 1.126-3.191.921 1.309-.756 2.254-1.126 3.191zm-.844-1.972c-.763-1.843 1.012-3.435 1.877-4.784.755 2.23-1.207 3.358-1.877 4.784zm-.282-3.282c-.16-.467-.196-1.056-.187-1.689.782-.781 1.461-1.665 1.876-2.815.856 1.953-1.119 3.086-1.689 4.504zm-.092 5.254c.31.158.241.696.468.938-.681 1.008-1.268 2.109-2.157 2.909-.088-.671-.342-1.546-.375-1.972 1.049-.263 1.514-1.113 2.064-1.875zm-1.315 8.912c1.063 2.054-1.175 3.317-2.063 4.784-1.498-2.042 1.402-3.296 2.063-4.784zm.094 3.565c.471 1.121-.055 3.511-1.032 4.503-.382-.484-1.039-.103-1.221 0-.528-1.929 1.375-3.129 2.253-4.503zm-2.157 9.476c.926 1.224-.499 2.138-.751 3.283-.527.099-1.13.123-1.689.188.602-1.37 1.725-2.216 2.44-3.471zm0-3.19c.601.068.947-.116 1.126-.469.074.449-.475 1.087-.751 1.501-.232-.261-.502-.693-.375-1.032zm1.875.281c.521.365-.489.568-.28 1.22a.478.478 0 0 0 .28.282c.39.132.539-.456.751-.188.289.335-.331.364-.469.562-.262.459-.661.779-.938 1.221-.279-.285-.284-.843-.47-1.221.331-.672.936-1.067 1.126-1.876zm2.16-16.7c1.211 1.682-.424 3.082-1.22 4.128-1.334-1.663.56-2.845 1.22-4.128zm.937 11.071c.815 1.925-1.441 3.316-2.157 4.879-.483-2.452 1.37-3.382 2.157-4.879zm1.22 2.72c-.571-.94.821-1.864 1.219-2.72.254.535.091.718.187 1.407-.992-.084-.964.849-1.406 1.313zm0-2.532c-.602-.935.183-2.293.937-3.097.779 1.177-.551 2.203-.937 3.097zm0-3.377c-.101-.572-.409-1.925-.095-2.721.215-.547 1.385-1.719-.188-1.407-.62-1.286-.173-2.346.469-3.284.197.931.466 2.405.656 3.847.187 1.405.138 2.713-.842 3.565zm-.845-7.412c-.3-.388-.274-1.101-.469-1.596.378-.623.843-1.157 1.22-1.781.636 1.387-.289 2.34-.751 3.377zm-.188-13.322c-1.37.069-1.157 1.718-1.97 2.345-1.787-5.069 1.121-10.59-1.783-15.104 1.419.708 2.791 1.464 3.378 3.001.092.374-.281.283-.188.656.711 3.647.462 6.395.563 9.102zm-1.407-15.292c.026.946.276 1.971.469 3.001-1.034-.902-3.919-1.576-4.504-2.908-.328-.749-.089-1.668-.468-2.627 1.581.764 3.066 1.625 4.503 2.534zm-4.129 1.5c1.593 2.255 2.646 5.16 2.346 8.35-.053.562-.311 1.054-.375 1.595-.21 1.766.101 3.672.375 5.534.258 1.748.854 3.826.281 5.348.628.644.285 1.702.657 2.626-.548.463-.941 1.551-1.595 1.595-.006-1.334.185-3.028-.187-4.784-.132-.619-.606-1.334-.564-1.971.024-.356.389-.626.47-1.031.343-1.73-.044-3.905-.563-5.347.054-.51.412-.714.563-1.125.208-5.338-2.004-8.255-4.974-10.415-.015-1.048-.924-1.201-.937-2.251 1.573.555 2.763 1.49 4.503 1.876zm-1.782-4.878c.495 1.008.804 2.199.939 3.565-1.27-.357-2.142-1.112-3.377-1.499-1.063-1.69-1.952-3.554-3.19-5.067 1.473 1.027 3.687 2.128 5.628 3.001zm-6.754-3.002c.959 1.432 1.851 2.46 2.533 4.127-1.434-.677-3.073-1.286-4.409-2.064-.362-.211-1.718-1.147-1.783-1.501-.352-1.921-.511-3.797-1.501-5.254-.643-.945-1.71-1.184-2.533-2.158-1.982.194-3.057-.67-4.784-.375-.213-.883-.036-2.155-.094-3.19.57-.659 1.323-1.01 2.064-1.501.633-.421 1.994-1.893 2.72-1.502.648.35 2.683 2.347 3.002 3.097.387.908.358 1.825.845 2.626.284.468.806.83 1.032 1.314.548 1.172.572 2.537 1.032 3.658.385.945 1.268 1.814 1.876 2.723zM37.333 7.56c.952-.536 2.513-1.056 3.564-.562 1.678.787 1.848 3.453 2.439 5.535-.972-1.053-.995-3.304-2.439-3.847-1.163-.438-2.782-.272-3.846.47-.622.432-.554.898-.938 1.594-.541.979-1.529 2.076-1.783 3.284-.033-2.632 1.043-5.37 3.003-6.474zm-2.251 7.132c.768-1.934 1.48-2.937 2.344-4.691.879-.536 2.447-.782 3.471-.188.907 2.035 1.982 3.897 3.002 5.817.317 3.092.48 6.338.845 9.382-.381-1.083-1.404-1.808-1.783-3.002-.14-.44-.092-.948-.281-1.408-.421-1.012-1.437-1.834-2.253-2.626-.327-.317-.866-.939-1.126-1.031-2.214-.79-3.317 2.178-5.253 2.533-.263-2.16.446-3.311 1.034-4.786zm-8.82 21.953c.353-.787 2.094-1.862 2.908-2.533 1.746-1.437 3.114-2.785 4.222-4.691 1.394 1.236-.543 4.282-.75 6.098-2.813 1.19-4.832 3.672-7.129 5.066.52-1.422.234-2.793.749-3.94zm-8.161 53.382c-.288-2.344-.18-4.644-.377-7.038-.168-2.06-.167-4.913-.374-7.412-.321-3.857.084-7.372-.187-11.257-.419-5.981-1.08-12.988-1.127-19.044 2.271-3.327 6.12-5.077 9.008-7.787.132 1.278-.819 2.728-.282 3.94-.489.449-.703 1.174-1.595 1.218-.648 1.377-3.037 2.084-3.565 3.661-.24.716-.162 3.188-.095 3.94.079.862.19 1.724.282 2.533.639 5.606-.064 11.726.376 17.262.138 1.726-.022 3.375.094 4.972.058.805.276 1.483.281 2.158.025 3.352.132 6.669.282 9.756-.668 1.523-.694 3.685-1.689 4.88-.739-.234-.949-1.098-1.032-1.782zm5.722 2.626c-1.129-.215-2.159-.531-3.471-.564.097-1.158.876-2.433 1.032-3.845.764.673 1.761 1.116 3.095 1.219.037.954-.55 2.07-.656 3.19zm7.505.562c-2.063-.25-4.558-.07-6.472-.468.025-1.193.442-1.997.657-3.002 1.958.35 3.759.836 5.535.939.028.873.38 1.831.28 2.531zm1.033-.186c-.153-.755-.257-1.558-.376-2.346.942.213 1.711.069 2.346.188.149.57.214 1.222.281 1.875-.726.12-1.372.317-2.251.283zm-.563-5.348c.673-.048 1.488.575 2.252.751.132.429.244.88.281 1.406-.697.073-1.457.188-2.251-.187-.33-.667.017-1.209-.282-1.97zm2.627-1.032c-1.789-.48-3.395-1.531-4.034-2.814.771.605 1.989.763 2.908 1.219 3.765-.236 8.213.209 11.163-.844-1.331 2.564-6.13 3.482-10.037 2.439zm6.192 2.063c.665-.211 1.485-.267 1.97-.657.75 1.064-.851 2.808-1.876 2.159.335-.499.12-1.057-.094-1.502zm-5.442-.093c.496-.027.774.163 1.22.188.089.267.089.858 0 1.126-.481-.101-.651.008-1.032-.094a3.846 3.846 0 0 1-.188-1.22zm.47 4.222c-.113-.565-.478-1.595-.095-2.066.517.015.86.205 1.314.283.134.554.23 1.145.374 1.689-.364.197-1.078.047-1.593.094zm2.626 0c-.206-.482-.296-1.081-.374-1.689.554.068.746-.018 1.406 0 .247.585.084.888.188 1.689h-1.22zm1.314-2.627c-.732.109-1.382.153-2.065-.187-.213-.444-.207-.759-.094-1.22h2.159c.057.679.05.795 0 1.407zm3.751 3.15h-2.72c-.29-1.153-.331-1.421 0-1.857a11.065 11.065 0 0 1 2.533.132c-.073.542.362.572.187 1.725zm.469-5.871c2.543-1.928 4.095-4.85 5.63-7.787.047.567.859 3.723.75 4.598-.106.862-1.238 1.962-1.783 2.72a38.036 38.036 0 0 0-1.782 2.721c-.316.028-.64.047-.844.188-.155-.504.369-.988.657-1.407.905-1.319 2.471-2.519 3.095-4.129a.478.478 0 0 0-.28-.28c-.688.126-1.092.838-1.502 1.314-1.247 1.45-2.443 3.187-3.753 4.691-.481-1.07.921-1.879-.188-2.629zm6.756-1.97c.474 1.707-.338 4.499-2.627 4.035.664-1.557 1.873-2.569 2.627-4.035zm.093 7.13c-2.085.071-4.49-.176-6.285.188-.229-.808-.049-1.64.469-1.97 1.928.358 3.652-.341 5.536-.563.132.784.462 1.795.28 2.345zm-.093-12.289c-.137-1.058-.54-1.859-.75-2.815-.451-2.042.015-4.137-.469-6.285-.274-1.207-.61-2.767-.094-4.129 1.396.022 2.345-.405 2.626-1.501.08-.017.09.038.094.095.545 1.601.55 3.356.844 5.066.463 2.698 1.554 5.224 1.689 7.505-.013.332-.268.419-.281.751.703 1.917.155 3.819-1.032 5.442-.495.675-1.086 1.337-1.597 1.687.132-.54-.044-1.243-.28-1.687.285-.653.849-1.281 1.314-1.971.379-.565 1.192-1.461.563-2.157-1.164.492-1.369 1.944-2.159 2.814-.291-.863-.342-1.844-.468-2.815zm4.222 3.188c.304.04.186.502.374.657-.621 1.433-1.919 2.379-2.72 3.754-.239.408-.314 1.277-1.126 1.031.683-2.288 2.565-3.376 3.472-5.442zm-3.096 9.101c-.021-.564-.294-1.868-.282-2.439 1.632.008 2.885.171 4.785-.094.366.583.662 1.701.657 2.346-1.706.077-3.746-.182-5.16.187zm6.662-7.505c.101.023.062.187.186.187-.263.862-.996 1.255-1.5 1.877.041-1.084.915-1.335 1.314-2.064zm-.47 8.216c-.123-1.153-.406-2.047-.562-2.889.909-.09 1.712-.064 2.532-.243.202 1.081.807.826.938 3.132h-2.908zm4.034-.897c-.388-1.021-.797-2.018-1.126-3.097.864-.324 2.323-.054 2.72-.844 1.004.934 1.524 2.355 2.439 3.377-1.153.378-3.007.057-4.033.564zm4.785-.658c-.593-1.754-1.794-2.898-2.627-4.411.606-2.173.393-4.937.376-7.88-.018-2.835.002-5.557-.281-7.88-.178-1.45-.785-2.838-.939-4.223-.153-1.389-.03-2.853-.187-4.222-.213-1.846-.673-3.392-.375-5.346-.657-3.097-.586-6.751-.845-10.039 1.448 1.837.918 4.246 1.408 6.473.164.745.511 1.511.844 2.346.481 1.202.494 2.357 1.22 3.189.655 4.324.212 8.666.562 12.946.221 2.694.723 5.352.939 8.069.066.817-.067 1.704 0 2.534.209 2.642.447 5.819-.095 8.444z"></path><path d="M41.274 15.066c.442-2.585-1.888-3.965-3.94-3.189-1.573.593-1.698 3.332-.377 4.315 1.625.691 3.598.127 4.317-1.126z"></path></g><defs><linearGradient gradientUnits="userSpaceOnUse" id="SvgjsLinearGradient1000" x1="9.592576980590833" y1="90.40697193145752" x2="90.4075984954834" y2="9.59195041656494"><stop stop-color="#efdb5d" offset="0.05"></stop><stop stop-color="#baa312" offset="0.95"></stop></linearGradient></defs></svg>